<mxfile host="app.diagrams.net" agent="Mozilla/5.0 (Windows NT 10.0; Win64; x64) AppleWebKit/537.36 (KHTML, like Gecko) Chrome/140.0.0.0 Safari/537.36" version="28.2.7">
  <diagram name="Page-1" id="DKlF0BjQWa2drR2mnhz_">
    <mxGraphModel dx="399" dy="733" grid="1" gridSize="10" guides="1" tooltips="1" connect="1" arrows="1" fold="1" page="1" pageScale="1" pageWidth="827" pageHeight="1169" math="0" shadow="0">
      <root>
        <mxCell id="0" />
        <mxCell id="1" parent="0" />
        <mxCell id="t4_b0YkrdpSN7c1w-0Bt-131" value="" style="whiteSpace=wrap;html=1;aspect=fixed;fillColor=light-dark(#FFFFFF,#FFFFFF);" vertex="1" parent="1">
          <mxGeometry x="900" y="320" width="640" height="640" as="geometry" />
        </mxCell>
        <mxCell id="t4_b0YkrdpSN7c1w-0Bt-1" value="&lt;font style=&quot;color: light-dark(rgb(0, 0, 0), rgb(0, 0, 0));&quot;&gt;PATIENT&lt;/font&gt;" style="shape=table;startSize=30;container=1;collapsible=1;childLayout=tableLayout;fixedRows=1;rowLines=0;fontStyle=1;align=center;resizeLast=1;html=1;fontColor=light-dark(#000000,#000000);strokeColor=light-dark(#000000,#000000);fontSize=14;fillColor=light-dark(#FFFFFF,#666666);" vertex="1" parent="1">
          <mxGeometry x="1310" y="360" width="180" height="150" as="geometry" />
        </mxCell>
        <mxCell id="t4_b0YkrdpSN7c1w-0Bt-2" value="" style="shape=tableRow;horizontal=0;startSize=0;swimlaneHead=0;swimlaneBody=0;fillColor=none;collapsible=0;dropTarget=0;points=[[0,0.5],[1,0.5]];portConstraint=eastwest;top=0;left=0;right=0;bottom=1;fontColor=light-dark(#000000,#000000);strokeColor=light-dark(#000000,#000000);fontSize=14;" vertex="1" parent="t4_b0YkrdpSN7c1w-0Bt-1">
          <mxGeometry y="30" width="180" height="30" as="geometry" />
        </mxCell>
        <mxCell id="t4_b0YkrdpSN7c1w-0Bt-3" value="PK" style="shape=partialRectangle;connectable=0;fillColor=none;top=0;left=0;bottom=0;right=0;fontStyle=1;overflow=hidden;whiteSpace=wrap;html=1;fontColor=light-dark(#000000,#000000);strokeColor=light-dark(#000000,#000000);fontSize=14;" vertex="1" parent="t4_b0YkrdpSN7c1w-0Bt-2">
          <mxGeometry width="30" height="30" as="geometry">
            <mxRectangle width="30" height="30" as="alternateBounds" />
          </mxGeometry>
        </mxCell>
        <mxCell id="t4_b0YkrdpSN7c1w-0Bt-4" value="patient_id" style="shape=partialRectangle;connectable=0;fillColor=none;top=0;left=0;bottom=0;right=0;align=left;spacingLeft=6;fontStyle=5;overflow=hidden;whiteSpace=wrap;html=1;fontColor=light-dark(#000000,#000000);strokeColor=light-dark(#000000,#000000);fontSize=14;" vertex="1" parent="t4_b0YkrdpSN7c1w-0Bt-2">
          <mxGeometry x="30" width="150" height="30" as="geometry">
            <mxRectangle width="150" height="30" as="alternateBounds" />
          </mxGeometry>
        </mxCell>
        <mxCell id="t4_b0YkrdpSN7c1w-0Bt-5" value="" style="shape=tableRow;horizontal=0;startSize=0;swimlaneHead=0;swimlaneBody=0;fillColor=none;collapsible=0;dropTarget=0;points=[[0,0.5],[1,0.5]];portConstraint=eastwest;top=0;left=0;right=0;bottom=0;fontColor=light-dark(#000000,#000000);strokeColor=light-dark(#000000,#000000);fontSize=14;" vertex="1" parent="t4_b0YkrdpSN7c1w-0Bt-1">
          <mxGeometry y="60" width="180" height="30" as="geometry" />
        </mxCell>
        <mxCell id="t4_b0YkrdpSN7c1w-0Bt-6" value="" style="shape=partialRectangle;connectable=0;fillColor=none;top=0;left=0;bottom=0;right=0;editable=1;overflow=hidden;whiteSpace=wrap;html=1;fontColor=light-dark(#000000,#000000);strokeColor=light-dark(#000000,#000000);fontSize=14;" vertex="1" parent="t4_b0YkrdpSN7c1w-0Bt-5">
          <mxGeometry width="30" height="30" as="geometry">
            <mxRectangle width="30" height="30" as="alternateBounds" />
          </mxGeometry>
        </mxCell>
        <mxCell id="t4_b0YkrdpSN7c1w-0Bt-7" value="name" style="shape=partialRectangle;connectable=0;fillColor=none;top=0;left=0;bottom=0;right=0;align=left;spacingLeft=6;overflow=hidden;whiteSpace=wrap;html=1;fontColor=light-dark(#000000,#000000);strokeColor=light-dark(#000000,#000000);fontSize=14;" vertex="1" parent="t4_b0YkrdpSN7c1w-0Bt-5">
          <mxGeometry x="30" width="150" height="30" as="geometry">
            <mxRectangle width="150" height="30" as="alternateBounds" />
          </mxGeometry>
        </mxCell>
        <mxCell id="t4_b0YkrdpSN7c1w-0Bt-8" value="" style="shape=tableRow;horizontal=0;startSize=0;swimlaneHead=0;swimlaneBody=0;fillColor=none;collapsible=0;dropTarget=0;points=[[0,0.5],[1,0.5]];portConstraint=eastwest;top=0;left=0;right=0;bottom=0;fontColor=light-dark(#000000,#000000);strokeColor=light-dark(#000000,#000000);fontSize=14;" vertex="1" parent="t4_b0YkrdpSN7c1w-0Bt-1">
          <mxGeometry y="90" width="180" height="30" as="geometry" />
        </mxCell>
        <mxCell id="t4_b0YkrdpSN7c1w-0Bt-9" value="" style="shape=partialRectangle;connectable=0;fillColor=none;top=0;left=0;bottom=0;right=0;editable=1;overflow=hidden;whiteSpace=wrap;html=1;fontColor=light-dark(#000000,#000000);strokeColor=light-dark(#000000,#000000);fontSize=14;" vertex="1" parent="t4_b0YkrdpSN7c1w-0Bt-8">
          <mxGeometry width="30" height="30" as="geometry">
            <mxRectangle width="30" height="30" as="alternateBounds" />
          </mxGeometry>
        </mxCell>
        <mxCell id="t4_b0YkrdpSN7c1w-0Bt-10" value="birth_date" style="shape=partialRectangle;connectable=0;fillColor=none;top=0;left=0;bottom=0;right=0;align=left;spacingLeft=6;overflow=hidden;whiteSpace=wrap;html=1;fontColor=light-dark(#000000,#000000);strokeColor=light-dark(#000000,#000000);fontSize=14;" vertex="1" parent="t4_b0YkrdpSN7c1w-0Bt-8">
          <mxGeometry x="30" width="150" height="30" as="geometry">
            <mxRectangle width="150" height="30" as="alternateBounds" />
          </mxGeometry>
        </mxCell>
        <mxCell id="t4_b0YkrdpSN7c1w-0Bt-11" value="" style="shape=tableRow;horizontal=0;startSize=0;swimlaneHead=0;swimlaneBody=0;fillColor=none;collapsible=0;dropTarget=0;points=[[0,0.5],[1,0.5]];portConstraint=eastwest;top=0;left=0;right=0;bottom=0;fontColor=light-dark(#000000,#000000);strokeColor=light-dark(#000000,#000000);fontSize=14;" vertex="1" parent="t4_b0YkrdpSN7c1w-0Bt-1">
          <mxGeometry y="120" width="180" height="30" as="geometry" />
        </mxCell>
        <mxCell id="t4_b0YkrdpSN7c1w-0Bt-12" value="" style="shape=partialRectangle;connectable=0;fillColor=none;top=0;left=0;bottom=0;right=0;editable=1;overflow=hidden;whiteSpace=wrap;html=1;fontColor=light-dark(#000000,#000000);strokeColor=light-dark(#000000,#000000);fontSize=14;" vertex="1" parent="t4_b0YkrdpSN7c1w-0Bt-11">
          <mxGeometry width="30" height="30" as="geometry">
            <mxRectangle width="30" height="30" as="alternateBounds" />
          </mxGeometry>
        </mxCell>
        <mxCell id="t4_b0YkrdpSN7c1w-0Bt-13" value="age_group" style="shape=partialRectangle;connectable=0;fillColor=none;top=0;left=0;bottom=0;right=0;align=left;spacingLeft=6;overflow=hidden;whiteSpace=wrap;html=1;fontColor=light-dark(#000000,#000000);strokeColor=light-dark(#000000,#000000);fontSize=14;" vertex="1" parent="t4_b0YkrdpSN7c1w-0Bt-11">
          <mxGeometry x="30" width="150" height="30" as="geometry">
            <mxRectangle width="150" height="30" as="alternateBounds" />
          </mxGeometry>
        </mxCell>
        <mxCell id="t4_b0YkrdpSN7c1w-0Bt-14" value="&lt;font style=&quot;color: light-dark(rgb(0, 0, 0), rgb(0, 0, 0));&quot;&gt;DOCTOR&lt;/font&gt;" style="shape=table;startSize=30;container=1;collapsible=1;childLayout=tableLayout;fixedRows=1;rowLines=0;fontStyle=1;align=center;resizeLast=1;html=1;fontColor=light-dark(#000000,#000000);strokeColor=light-dark(#000000,#000000);fontSize=14;fillColor=light-dark(#FFFFFF,#666666);" vertex="1" parent="1">
          <mxGeometry x="1340" y="550" width="180" height="120" as="geometry">
            <mxRectangle x="370" y="140" width="90" height="30" as="alternateBounds" />
          </mxGeometry>
        </mxCell>
        <mxCell id="t4_b0YkrdpSN7c1w-0Bt-15" value="" style="shape=tableRow;horizontal=0;startSize=0;swimlaneHead=0;swimlaneBody=0;fillColor=none;collapsible=0;dropTarget=0;points=[[0,0.5],[1,0.5]];portConstraint=eastwest;top=0;left=0;right=0;bottom=1;fontColor=light-dark(#000000,#000000);strokeColor=light-dark(#000000,#000000);fontSize=14;" vertex="1" parent="t4_b0YkrdpSN7c1w-0Bt-14">
          <mxGeometry y="30" width="180" height="30" as="geometry" />
        </mxCell>
        <mxCell id="t4_b0YkrdpSN7c1w-0Bt-16" value="PK" style="shape=partialRectangle;connectable=0;fillColor=none;top=0;left=0;bottom=0;right=0;fontStyle=1;overflow=hidden;whiteSpace=wrap;html=1;fontColor=light-dark(#000000,#000000);strokeColor=light-dark(#000000,#000000);fontSize=14;" vertex="1" parent="t4_b0YkrdpSN7c1w-0Bt-15">
          <mxGeometry width="30" height="30" as="geometry">
            <mxRectangle width="30" height="30" as="alternateBounds" />
          </mxGeometry>
        </mxCell>
        <mxCell id="t4_b0YkrdpSN7c1w-0Bt-17" value="doctor_id" style="shape=partialRectangle;connectable=0;fillColor=none;top=0;left=0;bottom=0;right=0;align=left;spacingLeft=6;fontStyle=5;overflow=hidden;whiteSpace=wrap;html=1;fontColor=light-dark(#000000,#000000);strokeColor=light-dark(#000000,#000000);fontSize=14;" vertex="1" parent="t4_b0YkrdpSN7c1w-0Bt-15">
          <mxGeometry x="30" width="150" height="30" as="geometry">
            <mxRectangle width="150" height="30" as="alternateBounds" />
          </mxGeometry>
        </mxCell>
        <mxCell id="t4_b0YkrdpSN7c1w-0Bt-18" value="" style="shape=tableRow;horizontal=0;startSize=0;swimlaneHead=0;swimlaneBody=0;fillColor=none;collapsible=0;dropTarget=0;points=[[0,0.5],[1,0.5]];portConstraint=eastwest;top=0;left=0;right=0;bottom=0;fontColor=light-dark(#000000,#000000);strokeColor=light-dark(#000000,#000000);fontSize=14;" vertex="1" parent="t4_b0YkrdpSN7c1w-0Bt-14">
          <mxGeometry y="60" width="180" height="30" as="geometry" />
        </mxCell>
        <mxCell id="t4_b0YkrdpSN7c1w-0Bt-19" value="" style="shape=partialRectangle;connectable=0;fillColor=none;top=0;left=0;bottom=0;right=0;editable=1;overflow=hidden;whiteSpace=wrap;html=1;fontColor=light-dark(#000000,#000000);strokeColor=light-dark(#000000,#000000);fontSize=14;" vertex="1" parent="t4_b0YkrdpSN7c1w-0Bt-18">
          <mxGeometry width="30" height="30" as="geometry">
            <mxRectangle width="30" height="30" as="alternateBounds" />
          </mxGeometry>
        </mxCell>
        <mxCell id="t4_b0YkrdpSN7c1w-0Bt-20" value="name" style="shape=partialRectangle;connectable=0;fillColor=none;top=0;left=0;bottom=0;right=0;align=left;spacingLeft=6;overflow=hidden;whiteSpace=wrap;html=1;fontColor=light-dark(#000000,#000000);strokeColor=light-dark(#000000,#000000);fontSize=14;" vertex="1" parent="t4_b0YkrdpSN7c1w-0Bt-18">
          <mxGeometry x="30" width="150" height="30" as="geometry">
            <mxRectangle width="150" height="30" as="alternateBounds" />
          </mxGeometry>
        </mxCell>
        <mxCell id="t4_b0YkrdpSN7c1w-0Bt-21" value="" style="shape=tableRow;horizontal=0;startSize=0;swimlaneHead=0;swimlaneBody=0;fillColor=none;collapsible=0;dropTarget=0;points=[[0,0.5],[1,0.5]];portConstraint=eastwest;top=0;left=0;right=0;bottom=0;fontColor=light-dark(#000000,#000000);strokeColor=light-dark(#000000,#000000);fontSize=14;" vertex="1" parent="t4_b0YkrdpSN7c1w-0Bt-14">
          <mxGeometry y="90" width="180" height="30" as="geometry" />
        </mxCell>
        <mxCell id="t4_b0YkrdpSN7c1w-0Bt-22" value="" style="shape=partialRectangle;connectable=0;fillColor=none;top=0;left=0;bottom=0;right=0;editable=1;overflow=hidden;whiteSpace=wrap;html=1;fontColor=light-dark(#000000,#000000);strokeColor=light-dark(#000000,#000000);fontSize=14;" vertex="1" parent="t4_b0YkrdpSN7c1w-0Bt-21">
          <mxGeometry width="30" height="30" as="geometry">
            <mxRectangle width="30" height="30" as="alternateBounds" />
          </mxGeometry>
        </mxCell>
        <mxCell id="t4_b0YkrdpSN7c1w-0Bt-23" value="specialization" style="shape=partialRectangle;connectable=0;fillColor=none;top=0;left=0;bottom=0;right=0;align=left;spacingLeft=6;overflow=hidden;whiteSpace=wrap;html=1;fontColor=light-dark(#000000,#000000);strokeColor=light-dark(#000000,#000000);fontSize=14;" vertex="1" parent="t4_b0YkrdpSN7c1w-0Bt-21">
          <mxGeometry x="30" width="150" height="30" as="geometry">
            <mxRectangle width="150" height="30" as="alternateBounds" />
          </mxGeometry>
        </mxCell>
        <mxCell id="t4_b0YkrdpSN7c1w-0Bt-27" value="&lt;font style=&quot;color: light-dark(rgb(0, 0, 0), rgb(0, 0, 0));&quot;&gt;DISEASE&lt;/font&gt;" style="shape=table;startSize=30;container=1;collapsible=1;childLayout=tableLayout;fixedRows=1;rowLines=0;fontStyle=1;align=center;resizeLast=1;html=1;fontColor=light-dark(#000000,#000000);strokeColor=light-dark(#000000,#000000);fontSize=14;fillColor=light-dark(#FFFFFF,#666666);" vertex="1" parent="1">
          <mxGeometry x="1310" y="780" width="180" height="90" as="geometry" />
        </mxCell>
        <mxCell id="t4_b0YkrdpSN7c1w-0Bt-28" value="" style="shape=tableRow;horizontal=0;startSize=0;swimlaneHead=0;swimlaneBody=0;fillColor=none;collapsible=0;dropTarget=0;points=[[0,0.5],[1,0.5]];portConstraint=eastwest;top=0;left=0;right=0;bottom=1;fontColor=light-dark(#000000,#000000);strokeColor=light-dark(#000000,#000000);fontSize=14;" vertex="1" parent="t4_b0YkrdpSN7c1w-0Bt-27">
          <mxGeometry y="30" width="180" height="30" as="geometry" />
        </mxCell>
        <mxCell id="t4_b0YkrdpSN7c1w-0Bt-29" value="PK" style="shape=partialRectangle;connectable=0;fillColor=none;top=0;left=0;bottom=0;right=0;fontStyle=1;overflow=hidden;whiteSpace=wrap;html=1;fontColor=light-dark(#000000,#000000);strokeColor=light-dark(#000000,#000000);fontSize=14;" vertex="1" parent="t4_b0YkrdpSN7c1w-0Bt-28">
          <mxGeometry width="30" height="30" as="geometry">
            <mxRectangle width="30" height="30" as="alternateBounds" />
          </mxGeometry>
        </mxCell>
        <mxCell id="t4_b0YkrdpSN7c1w-0Bt-30" value="disease_id" style="shape=partialRectangle;connectable=0;fillColor=none;top=0;left=0;bottom=0;right=0;align=left;spacingLeft=6;fontStyle=5;overflow=hidden;whiteSpace=wrap;html=1;fontColor=light-dark(#000000,#000000);strokeColor=light-dark(#000000,#000000);fontSize=14;" vertex="1" parent="t4_b0YkrdpSN7c1w-0Bt-28">
          <mxGeometry x="30" width="150" height="30" as="geometry">
            <mxRectangle width="150" height="30" as="alternateBounds" />
          </mxGeometry>
        </mxCell>
        <mxCell id="t4_b0YkrdpSN7c1w-0Bt-31" value="" style="shape=tableRow;horizontal=0;startSize=0;swimlaneHead=0;swimlaneBody=0;fillColor=none;collapsible=0;dropTarget=0;points=[[0,0.5],[1,0.5]];portConstraint=eastwest;top=0;left=0;right=0;bottom=0;fontColor=light-dark(#000000,#000000);strokeColor=light-dark(#000000,#000000);fontSize=14;" vertex="1" parent="t4_b0YkrdpSN7c1w-0Bt-27">
          <mxGeometry y="60" width="180" height="30" as="geometry" />
        </mxCell>
        <mxCell id="t4_b0YkrdpSN7c1w-0Bt-32" value="" style="shape=partialRectangle;connectable=0;fillColor=none;top=0;left=0;bottom=0;right=0;editable=1;overflow=hidden;whiteSpace=wrap;html=1;fontColor=light-dark(#000000,#000000);strokeColor=light-dark(#000000,#000000);fontSize=14;" vertex="1" parent="t4_b0YkrdpSN7c1w-0Bt-31">
          <mxGeometry width="30" height="30" as="geometry">
            <mxRectangle width="30" height="30" as="alternateBounds" />
          </mxGeometry>
        </mxCell>
        <mxCell id="t4_b0YkrdpSN7c1w-0Bt-33" value="disease_name" style="shape=partialRectangle;connectable=0;fillColor=none;top=0;left=0;bottom=0;right=0;align=left;spacingLeft=6;overflow=hidden;whiteSpace=wrap;html=1;fontColor=light-dark(#000000,#000000);strokeColor=light-dark(#000000,#000000);fontSize=14;" vertex="1" parent="t4_b0YkrdpSN7c1w-0Bt-31">
          <mxGeometry x="30" width="150" height="30" as="geometry">
            <mxRectangle width="150" height="30" as="alternateBounds" />
          </mxGeometry>
        </mxCell>
        <mxCell id="t4_b0YkrdpSN7c1w-0Bt-101" value="&lt;font style=&quot;color: light-dark(rgb(0, 0, 0), rgb(0, 0, 0));&quot;&gt;EXAMINATION&lt;/font&gt;" style="shape=table;startSize=30;container=1;collapsible=1;childLayout=tableLayout;fixedRows=1;rowLines=0;fontStyle=1;align=center;resizeLast=1;html=1;whiteSpace=wrap;fontColor=light-dark(#000000,#000000);strokeColor=light-dark(#000000,#000000);fontSize=14;fillColor=light-dark(#FFFFFF,#666666);" vertex="1" parent="1">
          <mxGeometry x="920" y="490" width="180" height="260" as="geometry" />
        </mxCell>
        <mxCell id="t4_b0YkrdpSN7c1w-0Bt-102" value="" style="shape=tableRow;horizontal=0;startSize=0;swimlaneHead=0;swimlaneBody=0;fillColor=none;collapsible=0;dropTarget=0;points=[[0,0.5],[1,0.5]];portConstraint=eastwest;top=0;left=0;right=0;bottom=0;html=1;fontColor=light-dark(#000000,#000000);strokeColor=light-dark(#000000,#000000);fontSize=14;" vertex="1" parent="t4_b0YkrdpSN7c1w-0Bt-101">
          <mxGeometry y="30" width="180" height="30" as="geometry" />
        </mxCell>
        <mxCell id="t4_b0YkrdpSN7c1w-0Bt-103" value="PK" style="shape=partialRectangle;connectable=0;fillColor=none;top=0;left=0;bottom=0;right=0;fontStyle=1;overflow=hidden;html=1;whiteSpace=wrap;fontColor=light-dark(#000000,#000000);strokeColor=light-dark(#000000,#000000);fontSize=14;" vertex="1" parent="t4_b0YkrdpSN7c1w-0Bt-102">
          <mxGeometry width="60" height="30" as="geometry">
            <mxRectangle width="60" height="30" as="alternateBounds" />
          </mxGeometry>
        </mxCell>
        <mxCell id="t4_b0YkrdpSN7c1w-0Bt-104" value="examination_id" style="shape=partialRectangle;connectable=0;fillColor=none;top=0;left=0;bottom=0;right=0;align=left;spacingLeft=6;fontStyle=5;overflow=hidden;html=1;whiteSpace=wrap;fontColor=light-dark(#000000,#000000);strokeColor=light-dark(#000000,#000000);fontSize=14;" vertex="1" parent="t4_b0YkrdpSN7c1w-0Bt-102">
          <mxGeometry x="60" width="120" height="30" as="geometry">
            <mxRectangle width="120" height="30" as="alternateBounds" />
          </mxGeometry>
        </mxCell>
        <mxCell id="t4_b0YkrdpSN7c1w-0Bt-114" value="" style="shape=tableRow;horizontal=0;startSize=0;swimlaneHead=0;swimlaneBody=0;fillColor=none;collapsible=0;dropTarget=0;points=[[0,0.5],[1,0.5]];portConstraint=eastwest;top=0;left=0;right=0;bottom=0;html=1;fontColor=light-dark(#000000,#000000);strokeColor=light-dark(#000000,#000000);fontSize=14;" vertex="1" parent="t4_b0YkrdpSN7c1w-0Bt-101">
          <mxGeometry y="60" width="180" height="30" as="geometry" />
        </mxCell>
        <mxCell id="t4_b0YkrdpSN7c1w-0Bt-115" value="FK1" style="shape=partialRectangle;connectable=0;fillColor=none;top=0;left=0;bottom=0;right=0;fontStyle=1;overflow=hidden;html=1;whiteSpace=wrap;fontColor=light-dark(#000000,#000000);strokeColor=light-dark(#000000,#000000);fontSize=14;" vertex="1" parent="t4_b0YkrdpSN7c1w-0Bt-114">
          <mxGeometry width="60" height="30" as="geometry">
            <mxRectangle width="60" height="30" as="alternateBounds" />
          </mxGeometry>
        </mxCell>
        <mxCell id="t4_b0YkrdpSN7c1w-0Bt-116" value="patient_id" style="shape=partialRectangle;connectable=0;fillColor=none;top=0;left=0;bottom=0;right=0;align=left;spacingLeft=6;fontStyle=5;overflow=hidden;html=1;whiteSpace=wrap;fontColor=light-dark(#000000,#000000);strokeColor=light-dark(#000000,#000000);fontSize=14;" vertex="1" parent="t4_b0YkrdpSN7c1w-0Bt-114">
          <mxGeometry x="60" width="120" height="30" as="geometry">
            <mxRectangle width="120" height="30" as="alternateBounds" />
          </mxGeometry>
        </mxCell>
        <mxCell id="t4_b0YkrdpSN7c1w-0Bt-117" value="" style="shape=tableRow;horizontal=0;startSize=0;swimlaneHead=0;swimlaneBody=0;fillColor=none;collapsible=0;dropTarget=0;points=[[0,0.5],[1,0.5]];portConstraint=eastwest;top=0;left=0;right=0;bottom=0;html=1;fontColor=light-dark(#000000,#000000);strokeColor=light-dark(#000000,#000000);fontSize=14;" vertex="1" parent="t4_b0YkrdpSN7c1w-0Bt-101">
          <mxGeometry y="90" width="180" height="30" as="geometry" />
        </mxCell>
        <mxCell id="t4_b0YkrdpSN7c1w-0Bt-118" value="FK2" style="shape=partialRectangle;connectable=0;fillColor=none;top=0;left=0;bottom=0;right=0;fontStyle=1;overflow=hidden;html=1;whiteSpace=wrap;fontColor=light-dark(#000000,#000000);strokeColor=light-dark(#000000,#000000);fontSize=14;" vertex="1" parent="t4_b0YkrdpSN7c1w-0Bt-117">
          <mxGeometry width="60" height="30" as="geometry">
            <mxRectangle width="60" height="30" as="alternateBounds" />
          </mxGeometry>
        </mxCell>
        <mxCell id="t4_b0YkrdpSN7c1w-0Bt-119" value="doctor_id" style="shape=partialRectangle;connectable=0;fillColor=none;top=0;left=0;bottom=0;right=0;align=left;spacingLeft=6;fontStyle=5;overflow=hidden;html=1;whiteSpace=wrap;fontColor=light-dark(#000000,#000000);strokeColor=light-dark(#000000,#000000);fontSize=14;" vertex="1" parent="t4_b0YkrdpSN7c1w-0Bt-117">
          <mxGeometry x="60" width="120" height="30" as="geometry">
            <mxRectangle width="120" height="30" as="alternateBounds" />
          </mxGeometry>
        </mxCell>
        <mxCell id="t4_b0YkrdpSN7c1w-0Bt-105" value="" style="shape=tableRow;horizontal=0;startSize=0;swimlaneHead=0;swimlaneBody=0;fillColor=none;collapsible=0;dropTarget=0;points=[[0,0.5],[1,0.5]];portConstraint=eastwest;top=0;left=0;right=0;bottom=1;html=1;fontColor=light-dark(#000000,#000000);strokeColor=light-dark(#000000,#000000);fontSize=14;" vertex="1" parent="t4_b0YkrdpSN7c1w-0Bt-101">
          <mxGeometry y="120" width="180" height="30" as="geometry" />
        </mxCell>
        <mxCell id="t4_b0YkrdpSN7c1w-0Bt-106" value="FK3" style="shape=partialRectangle;connectable=0;fillColor=none;top=0;left=0;bottom=0;right=0;fontStyle=1;overflow=hidden;html=1;whiteSpace=wrap;fontColor=light-dark(#000000,#000000);strokeColor=light-dark(#000000,#000000);fontSize=14;" vertex="1" parent="t4_b0YkrdpSN7c1w-0Bt-105">
          <mxGeometry width="60" height="30" as="geometry">
            <mxRectangle width="60" height="30" as="alternateBounds" />
          </mxGeometry>
        </mxCell>
        <mxCell id="t4_b0YkrdpSN7c1w-0Bt-107" value="disease_id" style="shape=partialRectangle;connectable=0;fillColor=none;top=0;left=0;bottom=0;right=0;align=left;spacingLeft=6;fontStyle=5;overflow=hidden;html=1;whiteSpace=wrap;fontColor=light-dark(#000000,#000000);strokeColor=light-dark(#000000,#000000);fontSize=14;" vertex="1" parent="t4_b0YkrdpSN7c1w-0Bt-105">
          <mxGeometry x="60" width="120" height="30" as="geometry">
            <mxRectangle width="120" height="30" as="alternateBounds" />
          </mxGeometry>
        </mxCell>
        <mxCell id="t4_b0YkrdpSN7c1w-0Bt-108" value="" style="shape=tableRow;horizontal=0;startSize=0;swimlaneHead=0;swimlaneBody=0;fillColor=none;collapsible=0;dropTarget=0;points=[[0,0.5],[1,0.5]];portConstraint=eastwest;top=0;left=0;right=0;bottom=0;html=1;fontColor=light-dark(#000000,#000000);strokeColor=light-dark(#000000,#000000);fontSize=14;" vertex="1" parent="t4_b0YkrdpSN7c1w-0Bt-101">
          <mxGeometry y="150" width="180" height="30" as="geometry" />
        </mxCell>
        <mxCell id="t4_b0YkrdpSN7c1w-0Bt-109" value="" style="shape=partialRectangle;connectable=0;fillColor=none;top=0;left=0;bottom=0;right=0;editable=1;overflow=hidden;html=1;whiteSpace=wrap;fontColor=light-dark(#000000,#000000);strokeColor=light-dark(#000000,#000000);fontSize=14;" vertex="1" parent="t4_b0YkrdpSN7c1w-0Bt-108">
          <mxGeometry width="60" height="30" as="geometry">
            <mxRectangle width="60" height="30" as="alternateBounds" />
          </mxGeometry>
        </mxCell>
        <mxCell id="t4_b0YkrdpSN7c1w-0Bt-110" value="exam_date" style="shape=partialRectangle;connectable=0;fillColor=none;top=0;left=0;bottom=0;right=0;align=left;spacingLeft=6;overflow=hidden;html=1;whiteSpace=wrap;fontColor=light-dark(#000000,#000000);strokeColor=light-dark(#000000,#000000);fontSize=14;" vertex="1" parent="t4_b0YkrdpSN7c1w-0Bt-108">
          <mxGeometry x="60" width="120" height="30" as="geometry">
            <mxRectangle width="120" height="30" as="alternateBounds" />
          </mxGeometry>
        </mxCell>
        <mxCell id="t4_b0YkrdpSN7c1w-0Bt-120" value="" style="shape=tableRow;horizontal=0;startSize=0;swimlaneHead=0;swimlaneBody=0;fillColor=none;collapsible=0;dropTarget=0;points=[[0,0.5],[1,0.5]];portConstraint=eastwest;top=0;left=0;right=0;bottom=0;html=1;fontColor=light-dark(#000000,#000000);strokeColor=light-dark(#000000,#000000);fontSize=14;" vertex="1" parent="t4_b0YkrdpSN7c1w-0Bt-101">
          <mxGeometry y="180" width="180" height="20" as="geometry" />
        </mxCell>
        <mxCell id="t4_b0YkrdpSN7c1w-0Bt-121" value="" style="shape=partialRectangle;connectable=0;fillColor=none;top=0;left=0;bottom=0;right=0;editable=1;overflow=hidden;html=1;whiteSpace=wrap;fontColor=light-dark(#000000,#000000);strokeColor=light-dark(#000000,#000000);fontSize=14;" vertex="1" parent="t4_b0YkrdpSN7c1w-0Bt-120">
          <mxGeometry width="60" height="20" as="geometry">
            <mxRectangle width="60" height="20" as="alternateBounds" />
          </mxGeometry>
        </mxCell>
        <mxCell id="t4_b0YkrdpSN7c1w-0Bt-122" value="astigmatic" style="shape=partialRectangle;connectable=0;fillColor=none;top=0;left=0;bottom=0;right=0;align=left;spacingLeft=6;overflow=hidden;html=1;whiteSpace=wrap;fontColor=light-dark(#000000,#000000);strokeColor=light-dark(#000000,#000000);fontSize=14;" vertex="1" parent="t4_b0YkrdpSN7c1w-0Bt-120">
          <mxGeometry x="60" width="120" height="20" as="geometry">
            <mxRectangle width="120" height="20" as="alternateBounds" />
          </mxGeometry>
        </mxCell>
        <mxCell id="t4_b0YkrdpSN7c1w-0Bt-111" value="" style="shape=tableRow;horizontal=0;startSize=0;swimlaneHead=0;swimlaneBody=0;fillColor=none;collapsible=0;dropTarget=0;points=[[0,0.5],[1,0.5]];portConstraint=eastwest;top=0;left=0;right=0;bottom=0;html=1;fontColor=light-dark(#000000,#000000);strokeColor=light-dark(#000000,#000000);fontSize=14;" vertex="1" parent="t4_b0YkrdpSN7c1w-0Bt-101">
          <mxGeometry y="200" width="180" height="30" as="geometry" />
        </mxCell>
        <mxCell id="t4_b0YkrdpSN7c1w-0Bt-112" value="" style="shape=partialRectangle;connectable=0;fillColor=none;top=0;left=0;bottom=0;right=0;editable=1;overflow=hidden;html=1;whiteSpace=wrap;fontColor=light-dark(#000000,#000000);strokeColor=light-dark(#000000,#000000);fontSize=14;" vertex="1" parent="t4_b0YkrdpSN7c1w-0Bt-111">
          <mxGeometry width="60" height="30" as="geometry">
            <mxRectangle width="60" height="30" as="alternateBounds" />
          </mxGeometry>
        </mxCell>
        <mxCell id="t4_b0YkrdpSN7c1w-0Bt-113" value="tear_rate" style="shape=partialRectangle;connectable=0;fillColor=none;top=0;left=0;bottom=0;right=0;align=left;spacingLeft=6;overflow=hidden;html=1;whiteSpace=wrap;fontColor=light-dark(#000000,#000000);strokeColor=light-dark(#000000,#000000);fontSize=14;" vertex="1" parent="t4_b0YkrdpSN7c1w-0Bt-111">
          <mxGeometry x="60" width="120" height="30" as="geometry">
            <mxRectangle width="120" height="30" as="alternateBounds" />
          </mxGeometry>
        </mxCell>
        <mxCell id="t4_b0YkrdpSN7c1w-0Bt-123" value="" style="shape=tableRow;horizontal=0;startSize=0;swimlaneHead=0;swimlaneBody=0;fillColor=none;collapsible=0;dropTarget=0;points=[[0,0.5],[1,0.5]];portConstraint=eastwest;top=0;left=0;right=0;bottom=0;html=1;fontColor=light-dark(#000000,#000000);strokeColor=light-dark(#000000,#000000);fontSize=14;" vertex="1" parent="t4_b0YkrdpSN7c1w-0Bt-101">
          <mxGeometry y="230" width="180" height="30" as="geometry" />
        </mxCell>
        <mxCell id="t4_b0YkrdpSN7c1w-0Bt-124" value="" style="shape=partialRectangle;connectable=0;fillColor=none;top=0;left=0;bottom=0;right=0;editable=1;overflow=hidden;html=1;whiteSpace=wrap;fontColor=light-dark(#000000,#000000);strokeColor=light-dark(#000000,#000000);fontSize=14;" vertex="1" parent="t4_b0YkrdpSN7c1w-0Bt-123">
          <mxGeometry width="60" height="30" as="geometry">
            <mxRectangle width="60" height="30" as="alternateBounds" />
          </mxGeometry>
        </mxCell>
        <mxCell id="t4_b0YkrdpSN7c1w-0Bt-125" value="lenses" style="shape=partialRectangle;connectable=0;fillColor=none;top=0;left=0;bottom=0;right=0;align=left;spacingLeft=6;overflow=hidden;html=1;whiteSpace=wrap;fontColor=light-dark(#000000,#000000);strokeColor=light-dark(#000000,#000000);fontSize=14;" vertex="1" parent="t4_b0YkrdpSN7c1w-0Bt-123">
          <mxGeometry x="60" width="120" height="30" as="geometry">
            <mxRectangle width="120" height="30" as="alternateBounds" />
          </mxGeometry>
        </mxCell>
        <mxCell id="t4_b0YkrdpSN7c1w-0Bt-126" style="edgeStyle=orthogonalEdgeStyle;rounded=0;orthogonalLoop=1;jettySize=auto;html=1;exitX=1;exitY=0.5;exitDx=0;exitDy=0;entryX=0;entryY=0.5;entryDx=0;entryDy=0;fontColor=light-dark(#000000,#000000);strokeColor=light-dark(#000000,#000000);startArrow=none;startFill=0;endArrow=ERone;endFill=0;fontSize=14;strokeWidth=2;" edge="1" parent="1" source="t4_b0YkrdpSN7c1w-0Bt-138" target="t4_b0YkrdpSN7c1w-0Bt-15">
          <mxGeometry relative="1" as="geometry" />
        </mxCell>
        <mxCell id="t4_b0YkrdpSN7c1w-0Bt-128" style="edgeStyle=orthogonalEdgeStyle;rounded=0;orthogonalLoop=1;jettySize=auto;html=1;exitX=1;exitY=0.5;exitDx=0;exitDy=0;entryX=0;entryY=0.5;entryDx=0;entryDy=0;fontColor=light-dark(#000000,#000000);strokeColor=light-dark(#000000,#000000);startArrow=none;startFill=0;endArrow=ERone;endFill=0;fontSize=14;strokeWidth=2;" edge="1" parent="1" source="t4_b0YkrdpSN7c1w-0Bt-134" target="t4_b0YkrdpSN7c1w-0Bt-2">
          <mxGeometry relative="1" as="geometry">
            <Array as="points">
              <mxPoint x="1290" y="405" />
              <mxPoint x="1290" y="405" />
            </Array>
          </mxGeometry>
        </mxCell>
        <mxCell id="t4_b0YkrdpSN7c1w-0Bt-136" value="" style="edgeStyle=orthogonalEdgeStyle;rounded=0;orthogonalLoop=1;jettySize=auto;html=1;exitX=1;exitY=0.5;exitDx=0;exitDy=0;entryX=0;entryY=0.5;entryDx=0;entryDy=0;fontColor=light-dark(#000000,#000000);strokeColor=light-dark(#000000,#000000);startArrow=ERzeroToMany;startFill=0;endArrow=none;endFill=0;fontSize=14;strokeWidth=2;" edge="1" parent="1" source="t4_b0YkrdpSN7c1w-0Bt-114" target="t4_b0YkrdpSN7c1w-0Bt-134">
          <mxGeometry relative="1" as="geometry">
            <mxPoint x="1100" y="565" as="sourcePoint" />
            <mxPoint x="1340" y="365" as="targetPoint" />
          </mxGeometry>
        </mxCell>
        <mxCell id="t4_b0YkrdpSN7c1w-0Bt-134" value="&lt;b&gt;&lt;font style=&quot;font-size: 14px;&quot;&gt;examined_in&lt;/font&gt;&lt;/b&gt;" style="text;html=1;whiteSpace=wrap;strokeColor=none;fillColor=none;align=center;verticalAlign=middle;rounded=0;fontColor=light-dark(#000000,#000000);" vertex="1" parent="1">
          <mxGeometry x="1180" y="390" width="90" height="30" as="geometry" />
        </mxCell>
        <mxCell id="t4_b0YkrdpSN7c1w-0Bt-139" value="" style="edgeStyle=orthogonalEdgeStyle;rounded=0;orthogonalLoop=1;jettySize=auto;html=1;exitX=1;exitY=0.5;exitDx=0;exitDy=0;entryX=0;entryY=0.5;entryDx=0;entryDy=0;fontColor=light-dark(#000000,#000000);strokeColor=light-dark(#000000,#000000);startArrow=ERzeroToMany;startFill=0;endArrow=none;endFill=0;fontSize=14;strokeWidth=2;" edge="1" parent="1" source="t4_b0YkrdpSN7c1w-0Bt-117" target="t4_b0YkrdpSN7c1w-0Bt-138">
          <mxGeometry relative="1" as="geometry">
            <mxPoint x="1100" y="595" as="sourcePoint" />
            <mxPoint x="1310" y="595" as="targetPoint" />
          </mxGeometry>
        </mxCell>
        <mxCell id="t4_b0YkrdpSN7c1w-0Bt-138" value="&lt;b&gt;&lt;font style=&quot;font-size: 14px;&quot;&gt;performs&lt;/font&gt;&lt;/b&gt;" style="text;html=1;whiteSpace=wrap;strokeColor=none;fillColor=none;align=center;verticalAlign=middle;rounded=0;fontColor=light-dark(#000000,#000000);" vertex="1" parent="1">
          <mxGeometry x="1189" y="580" width="71" height="30" as="geometry" />
        </mxCell>
        <mxCell id="t4_b0YkrdpSN7c1w-0Bt-142" value="" style="edgeStyle=orthogonalEdgeStyle;rounded=0;orthogonalLoop=1;jettySize=auto;html=1;exitX=1;exitY=0.5;exitDx=0;exitDy=0;entryX=0;entryY=0.5;entryDx=0;entryDy=0;fontColor=light-dark(#000000,#000000);strokeColor=light-dark(#000000,#000000);startArrow=ERzeroToMany;startFill=0;endArrow=none;endFill=0;fontSize=14;strokeWidth=2;" edge="1" parent="1" source="t4_b0YkrdpSN7c1w-0Bt-105" target="t4_b0YkrdpSN7c1w-0Bt-140">
          <mxGeometry relative="1" as="geometry">
            <mxPoint x="1100" y="625" as="sourcePoint" />
            <mxPoint x="1310" y="825" as="targetPoint" />
            <Array as="points" />
          </mxGeometry>
        </mxCell>
        <mxCell id="t4_b0YkrdpSN7c1w-0Bt-143" style="edgeStyle=orthogonalEdgeStyle;rounded=0;orthogonalLoop=1;jettySize=auto;html=1;exitX=1;exitY=0.5;exitDx=0;exitDy=0;entryX=0;entryY=0.5;entryDx=0;entryDy=0;strokeColor=light-dark(#000000,#000000);endArrow=ERone;endFill=0;strokeWidth=2;" edge="1" parent="1" source="t4_b0YkrdpSN7c1w-0Bt-140" target="t4_b0YkrdpSN7c1w-0Bt-28">
          <mxGeometry relative="1" as="geometry" />
        </mxCell>
        <mxCell id="t4_b0YkrdpSN7c1w-0Bt-140" value="&lt;b&gt;&lt;font style=&quot;font-size: 14px;&quot;&gt;diagnosed_as&lt;/font&gt;&lt;/b&gt;" style="text;html=1;whiteSpace=wrap;strokeColor=none;fillColor=none;align=center;verticalAlign=middle;rounded=0;fontColor=light-dark(#000000,#000000);" vertex="1" parent="1">
          <mxGeometry x="1170" y="810" width="100" height="30" as="geometry" />
        </mxCell>
      </root>
    </mxGraphModel>
  </diagram>
</mxfile>
